<svg width="54" height="54" viewBox="0 0 54 54" fill="none" xmlns="http://www.w3.org/2000/svg">
<rect width="54" height="54" fill="white"/>
<rect x="10.75" y="10.75" width="19.5" height="24.5" rx="2.25" stroke="black" stroke-width="1.5"/>
<path d="M22.6514 25.4023H18.4814L17.5449 28H16.1914L19.9922 18.0469H21.1406L24.9482 28H23.6016L22.6514 25.4023ZM18.8779 24.3223H22.2617L20.5664 19.667L18.8779 24.3223Z" fill="black"/>
<path d="M22.6514 25.4023L22.8862 25.3165L22.8261 25.1523H22.6514V25.4023ZM18.4814 25.4023V25.1523H18.3058L18.2463 25.3176L18.4814 25.4023ZM17.5449 28V28.25H17.7205L17.7801 28.0848L17.5449 28ZM16.1914 28L15.9579 27.9108L15.8283 28.25H16.1914V28ZM19.9922 18.0469V17.7969H19.82L19.7586 17.9577L19.9922 18.0469ZM21.1406 18.0469L21.3741 17.9575L21.3127 17.7969H21.1406V18.0469ZM24.9482 28V28.25H25.3116L25.1817 27.9107L24.9482 28ZM23.6016 28L23.3668 28.0859L23.4268 28.25H23.6016V28ZM18.8779 24.3223L18.6429 24.237L18.5213 24.5723H18.8779V24.3223ZM22.2617 24.3223V24.5723H22.6188L22.4966 24.2367L22.2617 24.3223ZM20.5664 19.667L20.8013 19.5814L20.5659 18.9351L20.3314 19.5818L20.5664 19.667ZM22.6514 25.1523H18.4814V25.6523H22.6514V25.1523ZM18.2463 25.3176L17.3097 27.9152L17.7801 28.0848L18.7166 25.4871L18.2463 25.3176ZM17.5449 27.75H16.1914V28.25H17.5449V27.75ZM16.425 28.0892L20.2257 18.1361L19.7586 17.9577L15.9579 27.9108L16.425 28.0892ZM19.9922 18.2969H21.1406V17.7969H19.9922V18.2969ZM20.9071 18.1362L24.7147 28.0893L25.1817 27.9107L21.3741 17.9575L20.9071 18.1362ZM24.9482 27.75H23.6016V28.25H24.9482V27.75ZM23.8363 27.9141L22.8862 25.3165L22.4166 25.4882L23.3668 28.0859L23.8363 27.9141ZM18.8779 24.5723H22.2617V24.0723H18.8779V24.5723ZM22.4966 24.2367L20.8013 19.5814L20.3315 19.7525L22.0268 24.4078L22.4966 24.2367ZM20.3314 19.5818L18.6429 24.237L19.1129 24.4075L20.8014 19.7522L20.3314 19.5818Z" fill="black"/>
<g filter="url(#filter0_d_102:18)">
<rect x="23.75" y="19.75" width="18.5" height="24.5" rx="2.25" fill="white" stroke="#6688FF" stroke-width="1.5"/>
<path d="M35.954 28.67C35.24 30.644 34.26 32.254 32.972 33.556C31.642 32.198 30.648 30.546 29.962 28.67H35.954ZM39.314 28.67V27.648H33.504V25.282H32.454V27.648H26.756V28.67H28.814C29.612 30.896 30.704 32.786 32.146 34.312C30.648 35.544 28.814 36.44 26.588 37.084C26.812 37.322 27.148 37.826 27.246 38.078C29.5 37.35 31.39 36.384 32.93 35.068C34.47 36.454 36.374 37.462 38.712 38.064C38.866 37.77 39.202 37.294 39.454 37.056C37.186 36.524 35.296 35.572 33.77 34.284C35.226 32.814 36.332 30.966 37.158 28.67H39.314Z" fill="#6688FF"/>
<path d="M35.954 28.67L36.1891 28.755L36.3103 28.42H35.954V28.67ZM32.972 33.556L32.7934 33.7309L32.9711 33.9124L33.1497 33.7318L32.972 33.556ZM29.962 28.67V28.42H29.6044L29.7272 28.7559L29.962 28.67ZM39.314 28.67V28.92H39.564V28.67H39.314ZM39.314 27.648H39.564V27.398H39.314V27.648ZM33.504 27.648H33.254V27.898H33.504V27.648ZM33.504 25.282H33.754V25.032H33.504V25.282ZM32.454 25.282V25.032H32.204V25.282H32.454ZM32.454 27.648V27.898H32.704V27.648H32.454ZM26.756 27.648V27.398H26.506V27.648H26.756ZM26.756 28.67H26.506V28.92H26.756V28.67ZM28.814 28.67L29.0493 28.5856L28.99 28.42H28.814V28.67ZM32.146 34.312L32.3048 34.5051L32.5117 34.335L32.3277 34.1403L32.146 34.312ZM26.588 37.084L26.5185 36.8438L26.1256 36.9575L26.406 37.2553L26.588 37.084ZM27.246 38.078L27.013 38.1686L27.0985 38.3884L27.3228 38.3159L27.246 38.078ZM32.93 35.068L33.0972 34.8822L32.9343 34.7355L32.7676 34.8779L32.93 35.068ZM38.712 38.064L38.6497 38.3061L38.8415 38.3555L38.9335 38.18L38.712 38.064ZM39.454 37.056L39.6257 37.2378L39.9635 36.9187L39.5111 36.8126L39.454 37.056ZM33.77 34.284L33.5924 34.1081L33.4019 34.3004L33.6088 34.475L33.77 34.284ZM37.158 28.67V28.42H36.9823L36.9228 28.5854L37.158 28.67ZM35.7189 28.585C35.0153 30.5302 34.0531 32.1076 32.7943 33.3802L33.1497 33.7318C34.4669 32.4004 35.4647 30.7578 36.1891 28.755L35.7189 28.585ZM33.1506 33.3811C31.8485 32.0516 30.8722 30.4312 30.1968 28.5841L29.7272 28.7559C30.4238 30.6608 31.4355 32.3444 32.7934 33.7309L33.1506 33.3811ZM29.962 28.92H35.954V28.42H29.962V28.92ZM39.564 28.67V27.648H39.064V28.67H39.564ZM39.314 27.398H33.504V27.898H39.314V27.398ZM33.754 27.648V25.282H33.254V27.648H33.754ZM33.504 25.032H32.454V25.532H33.504V25.032ZM32.204 25.282V27.648H32.704V25.282H32.204ZM32.454 27.398H26.756V27.898H32.454V27.398ZM26.506 27.648V28.67H27.006V27.648H26.506ZM26.756 28.92H28.814V28.42H26.756V28.92ZM28.5787 28.7544C29.386 31.0063 30.4942 32.928 31.9643 34.4837L32.3277 34.1403C30.9138 32.644 29.838 30.7857 29.0493 28.5856L28.5787 28.7544ZM31.9872 34.1189C30.5215 35.3244 28.7203 36.2069 26.5185 36.8438L26.6575 37.3242C28.9077 36.6731 30.7745 35.7636 32.3048 34.5051L31.9872 34.1189ZM26.406 37.2553C26.5044 37.3599 26.6355 37.5325 26.7559 37.714C26.878 37.8979 26.9741 38.0686 27.013 38.1686L27.479 37.9874C27.4199 37.8354 27.299 37.6281 27.1726 37.4375C27.0445 37.2445 26.8956 37.0461 26.7701 36.9127L26.406 37.2553ZM27.3228 38.3159C29.5992 37.5807 31.521 36.6009 33.0924 35.2581L32.7676 34.8779C31.259 36.1671 29.4008 37.1193 27.1692 37.8401L27.3228 38.3159ZM32.7628 35.2538C34.3357 36.6695 36.2768 37.6951 38.6497 38.3061L38.7743 37.8219C36.4712 37.2289 34.6043 36.2385 33.0972 34.8822L32.7628 35.2538ZM38.9335 38.18C39.0779 37.9042 39.3984 37.4524 39.6257 37.2378L39.2823 36.8742C39.0056 37.1356 38.6541 37.6358 38.4905 37.948L38.9335 38.18ZM39.5111 36.8126C37.2785 36.2889 35.4249 35.3536 33.9312 34.093L33.6088 34.475C35.1671 35.7904 37.0935 36.7591 39.3969 37.2994L39.5111 36.8126ZM33.9476 34.4599C35.434 32.9592 36.5574 31.0779 37.3932 28.7546L36.9228 28.5854C36.1066 30.8541 35.018 32.6688 33.5924 34.1081L33.9476 34.4599ZM37.158 28.92H39.314V28.42H37.158V28.92Z" fill="#6688FF"/>
</g>
<defs>
<filter id="filter0_d_102:18" x="15" y="11" width="36" height="42" filterUnits="userSpaceOnUse" color-interpolation-filters="sRGB">
<feFlood flood-opacity="0" result="BackgroundImageFix"/>
<feColorMatrix in="SourceAlpha" type="matrix" values="0 0 0 0 0 0 0 0 0 0 0 0 0 0 0 0 0 0 127 0" result="hardAlpha"/>
<feOffset/>
<feGaussianBlur stdDeviation="4"/>
<feComposite in2="hardAlpha" operator="out"/>
<feColorMatrix type="matrix" values="0 0 0 0 0 0 0 0 0 0 0 0 0 0 0 0 0 0 0.5 0"/>
<feBlend mode="normal" in2="BackgroundImageFix" result="effect1_dropShadow_102:18"/>
<feBlend mode="normal" in="SourceGraphic" in2="effect1_dropShadow_102:18" result="shape"/>
</filter>
</defs>
</svg>
